<?xml version="1.0" encoding="UTF-8"?>
<!-- Generated by Pixelmator Pro 3.7 -->
<svg width="720" height="329" viewBox="0 0 720 329" xmlns="http://www.w3.org/2000/svg">
    <path id="polygon6" fill="#663367" stroke="none" d="M 76.199997 248.099991 L 76.199997 197.199997 L 110.300003 197.199997 L 110.300003 205.899994 L 86 205.899994 L 86 219 L 106.199997 219 L 106.199997 227 L 86 227 L 86 248.099991 L 76.199997 248.099991 Z"/>
    <path id="path8" fill="#663367" stroke="none" d="M 117.300003 248 L 117.300003 197.199997 L 139.699997 197.199997 C 142.100006 197.199997 144.199997 197.699997 146.199997 198.699997 C 148.199997 199.699997 149.899994 201 151.300003 202.599991 C 154.109131 205.790924 155.733551 209.85199 155.899994 214.099991 C 155.92337 217.274582 155.057343 220.392273 153.399994 223.099991 C 151.8685 225.682465 149.557846 227.713028 146.800003 228.899994 L 158.399994 248.099991 L 147.300003 248.099991 L 136.899994 231.099991 L 127 231.099991 L 127 248.099991 L 117.199997 248.099991 Z M 127.099998 222.300003 L 139.5 222.300003 C 140.5 222.300003 141.300003 222.099991 142.100006 221.699997 C 142.800003 221.300003 143.5 220.699997 144.100006 219.899994 C 144.699997 219.199997 145.100006 218.300003 145.5 217.300003 C 146.176483 215.18042 146.141357 212.897766 145.399994 210.800003 C 145 209.800003 144.399994 209 143.800003 208.199997 C 143.187714 207.491928 142.439621 206.913864 141.600006 206.5 C 140.800003 206.099991 140 205.899994 139.100006 205.899994 L 127.099998 205.899994 L 127.099998 222.399994 Z"/>
    <path id="polygon10" fill="#663367" stroke="none" d="M 200.199997 239.399994 L 200.199997 248.099991 L 164.899994 248.099991 L 164.899994 197.199997 L 199.5 197.199997 L 199.5 205.899994 L 174.800003 205.899994 L 174.800003 218.099991 L 196.199997 218.099991 L 196.199997 226.099991 L 174.800003 226.099991 L 174.800003 239.399994 L 200.199997 239.399994 Z"/>
    <path id="polygon12" fill="#663367" stroke="none" d="M 243.199997 239.399994 L 243.199997 248.099991 L 207.899994 248.099991 L 207.899994 197.199997 L 242.600006 197.199997 L 242.600006 205.899994 L 217.800003 205.899994 L 217.800003 218.099991 L 239.199997 218.099991 L 239.199997 226.099991 L 217.800003 226.099991 L 217.800003 239.399994 L 243.199997 239.399994 Z"/>
    <path id="polygon14" fill="#663367" stroke="none" d="M 268.100006 248.099991 L 268.100006 197.199997 L 278 197.199997 L 278 239.399994 L 303.899994 239.399994 L 303.899994 248.099991 L 268.100006 248.099991 Z"/>
    <path id="path16" fill="#663367" stroke="none" d="M 324.399994 197.199997 L 333.100006 197.199997 L 352.399994 248 L 342.299988 248 L 337.600006 235.399994 L 319.799988 235.399994 L 315.100006 248 L 305 248 L 324.399994 197.199997 Z M 335.799988 228.399994 L 328.799988 208.399994 L 321.399994 228.399994 L 335.799988 228.399994 Z"/>
    <path id="polygon18" fill="#663367" stroke="none" d="M 366.200012 197.399994 L 375.299988 197.399994 L 381 214.199997 L 386.700012 197.399994 L 395.899994 197.399994 L 387.299988 220.5 L 393.700012 236.699997 L 408.100006 197.199997 L 418.799988 197.199997 L 398.100006 248.099991 L 389.799988 248.099991 L 381 226.699997 L 372.200012 248.099991 L 363.899994 248.099991 L 343.399994 197.199997 L 354 197.199997 L 368.399994 236.699997 L 374.700012 220.5 L 366.200012 197.399994 Z"/>
    <path id="path20" fill="#848582" stroke="none" d="M 431.299988 248 L 431.299988 197.199997 L 452.299988 197.199997 C 454.5 197.199997 456.5 197.699997 458.299988 198.599991 C 461.998291 200.396484 464.863068 203.547729 466.299988 207.399994 C 468.379639 213.198212 467.238647 219.663834 463.299988 224.399994 C 462.004639 225.850143 460.443085 227.0383 458.700012 227.899994 C 456.841064 228.840698 454.783295 229.320862 452.700012 229.300003 L 436.299988 229.300003 L 436.299988 248.099991 L 431.299988 248.099991 Z M 436.299988 224.800003 L 452.5 224.800003 C 454 224.800003 455.399994 224.5 456.5 223.800003 C 457.73111 223.201767 458.821655 222.349777 459.700012 221.300003 C 462.383453 217.674881 463.095154 212.955215 461.600006 208.699997 C 461.100006 207.300003 460.299988 206.099991 459.399994 205 C 458.399994 204 457.399994 203.099991 456.100006 202.5 C 454.852478 201.899628 453.484436 201.591812 452.100006 201.599991 L 436.299988 201.599991 L 436.299988 224.800003 Z"/>
    <path id="path22" fill="#848582" stroke="none" d="M 472.200012 248 L 472.200012 197.199997 L 493.700012 197.199997 C 495.899994 197.199997 497.899994 197.699997 499.700012 198.599991 C 503.398285 200.396484 506.263062 203.547729 507.700012 207.399994 C 509.089325 210.957535 509.160248 214.894714 507.899994 218.5 C 507.399994 220.199997 506.600006 221.699997 505.600006 223.099991 C 503.682098 225.888748 500.730377 227.79657 497.399994 228.399994 L 510 248.199997 L 504.299988 248.199997 L 492.299988 229.399994 L 477.299988 229.399994 L 477.299988 248.199997 L 472.299988 248.199997 Z M 477.200012 224.800003 L 494 224.800003 C 495.397797 224.821884 496.776947 224.477097 498 223.800003 C 499.196716 223.19252 500.252777 222.340866 501.100006 221.300003 C 504.865448 216.515839 504.73999 209.741455 500.799988 205.099991 C 499.799988 204.099991 498.799988 203.199997 497.5 202.599991 C 496.299988 202 494.899994 201.599991 493.5 201.599991 L 477.399994 201.599991 L 477.399994 224.800003 Z"/>
    <path id="path24" fill="#848582" stroke="none" d="M 535.900024 248.399994 C 529.247742 248.360672 522.938354 245.443039 518.599976 240.399994 C 514.277283 235.485321 511.9263 229.144791 512 222.599991 C 512.034241 215.942154 514.527161 209.531708 519 204.599991 C 521 202.300003 523.599976 200.399994 526.5 199 C 529.5 197.599991 532.5 196.899994 536 196.899994 C 539.5 196.899994 542.700012 197.599991 545.700012 199.099991 C 554.239319 203.91687 559.49646 212.984238 559.434204 222.788239 C 559.371887 232.592255 553.999878 241.592056 545.400024 246.300003 C 542.429749 247.700211 539.183716 248.417755 535.900024 248.399994 M 517 222.599991 C 517.023376 227.994049 518.89386 233.217331 522.299988 237.399994 C 524 239.399994 525.900024 241 528.299988 242.099991 C 530.5 243.300003 533.099976 243.899994 535.900024 243.899994 C 538.700012 243.899994 541.299988 243.300003 543.700012 242 C 546 240.800003 548 239.199997 549.700012 237.099991 C 553.021057 233.005646 554.791565 227.871124 554.700012 222.599991 C 554.694641 217.233093 552.820679 212.035538 549.400024 207.899994 C 547.700012 205.899994 545.799988 204.300003 543.400024 203.199997 C 536.02832 199.469376 527.041748 201.578903 522.099976 208.199997 C 518.801147 212.267868 517.031982 217.363068 517.099976 222.599991"/>
    <path id="path26" fill="#848582" stroke="none" d="M 559.099976 241.699997 C 561.98407 243.481171 565.310303 244.416687 568.700012 244.399994 C 571.299988 244.399994 573.400024 243.899994 574.900024 242.899994 C 576.400024 241.899994 577.700012 240.599991 578.5 238.800003 C 579.299988 237 579.799988 234.800003 580.099976 232.099991 C 580.299988 229.5 580.400024 226.399994 580.400024 223.099991 L 580.400024 197.199997 L 585.400024 197.199997 L 585.400024 223.099991 C 585.400024 226.899994 585.200012 230.399994 584.900024 233.599991 C 584.5 236.800003 583.799988 239.5 582.599976 241.699997 C 581.5 244 579.799988 245.699997 577.599976 247 C 574.835876 248.350708 571.771729 248.970428 568.700012 248.800003 C 564.400024 248.800003 560.700012 247.800003 557.700012 245.699997 L 559.099976 241.699997 Z"/>
    <path id="polygon28" fill="#848582" stroke="none" d="M 628.099976 243.599991 L 628.099976 248.099991 L 594 248.099991 L 594 197.199997 L 627.5 197.199997 L 627.5 201.699997 L 599 201.699997 L 599 220 L 623.799988 220 L 623.799988 224.199997 L 599 224.199997 L 599 243.599991 L 628.099976 243.599991 Z"/>
    <path id="path30" fill="#848582" stroke="none" d="M 629.5 222.199997 C 629.556458 215.912216 631.781799 209.8367 635.799988 205 C 640.216919 199.777023 646.761719 196.835526 653.599976 197 C 658.200012 197 662.099976 198 665.299988 200 C 668.5 202 670.900024 204.699997 672.400024 208 L 668.400024 210.5 C 666.996277 207.494003 664.641663 205.033951 661.700012 203.5 C 660.434204 202.737518 659.047668 202.196426 657.599976 201.899994 C 656.221619 201.585342 654.813721 201.41774 653.400024 201.399994 C 647.908813 201.271881 642.694092 203.804749 639.400024 208.199997 C 637.799988 210.199997 636.599976 212.399994 635.799988 214.899994 C 634.157227 220.015778 634.227478 225.52771 636 230.599991 C 637 233.199997 638.299988 235.5 640 237.5 C 641.700012 239.5 643.700012 241 646 242.199997 C 648.354675 243.383957 650.965332 243.967926 653.599976 243.899994 C 656.635071 243.8797 659.620117 243.124863 662.299988 241.699997 C 665.290222 240.0401 667.724976 237.535782 669.299988 234.5 L 673.400024 236.599991 C 672.599976 238.599991 671.400024 240.199997 670 241.599991 C 667.057922 244.55246 663.353577 246.629684 659.299988 247.599991 C 654.108826 249.208313 648.489563 248.667999 643.700012 246.099991 C 634.960693 241.271072 629.525391 232.084641 629.5 222.099991"/>
    <path id="polygon32" fill="#848582" stroke="none" d="M 714 201.699997 L 695.900024 201.699997 L 695.900024 248.099991 L 690.900024 248.099991 L 690.900024 201.699997 L 672.799988 201.699997 L 672.799988 197.199997 L 714 197.199997 L 714 201.699997 Z"/>
    <path id="path34" fill="#848582" stroke="none" d="M 213.399994 144.399994 L 165.699997 144.399994 L 165.699997 148.399994 C 165.699997 153.199997 168.699997 156.099991 173.399994 156.099991 L 204.600006 156 C 205.600006 156 206.600006 156 207.399994 155.699997 C 213.199997 154.199997 214.199997 149.399994 213.399994 144.399994 Z"/>
    <path id="path36" fill="#848582" stroke="none" d="M 223.699997 85.899994 C 222.016907 84.187225 219.700729 83.246277 217.300003 83.300003 C 214.5 83.300003 212.300003 84.199997 210.5 85.899994 C 209.662292 86.716156 209.013733 87.70607 208.600006 88.800003 L 150.899994 88.800003 L 150.899994 181.199997 L 158.399994 181.199997 L 158.399994 96.199997 L 187.399994 96.199997 L 187.399994 106.199997 C 187.399994 106.800003 187.199997 107.5 187 108.100006 L 176.699997 137.099991 C 176.399994 138 176.100006 138.300003 175.199997 138.199997 L 166.199997 138.199997 C 165.300003 138.199997 164.899994 138.699997 164.899994 139.5 C 164.899994 140.300003 165.300003 140.800003 166.399994 140.800003 L 174.899994 140.800003 L 213.699997 140.599991 C 214.800003 140.599991 215.399994 140.099991 215.399994 139.300003 C 215.399994 138.5 214.800003 138.099991 213.699997 138.099991 L 206.300003 138.099991 C 205.600006 138.099991 205.300003 137.899994 205 137.199997 L 192.699997 108.199997 L 192.5 107.199997 L 192.5 96.199997 L 208.600006 96.199997 C 209.976807 99.699249 213.445953 101.917892 217.199997 101.699997 C 219.65715 101.728668 222.01918 100.751404 223.737778 98.995026 C 225.456375 97.238663 226.38208 94.855942 226.300003 92.399994 C 226.346054 89.971237 225.408356 87.626999 223.699997 85.899994 Z M 200.699997 138.099991 L 181 138.099991 L 189.699997 113.399994 L 190 113.399994 L 200.5 138.099991 Z M 219.899994 95.600006 C 219.100006 96.5 218.199997 96.899994 217.100006 96.899994 C 216 96.899994 215.100006 96.5 214.300003 95.600006 C 213.514191 94.681244 213.087891 93.508896 213.100006 92.300003 C 213.156967 91.194748 213.57901 90.139633 214.300003 89.300003 C 215.100006 88.5 216.100006 88.100006 217.100006 88.100006 C 218.100006 88.100006 219.100006 88.5 219.899994 89.399994 C 220.699997 90.399994 221.100006 91.399994 221.100006 92.600006 C 221.100006 93.800003 220.699997 94.699997 219.899994 95.600006 Z"/>
    <g id="g42">
        <path id="path38" fill="#848582" stroke="none" d="M 68.199997 165 L 20.4 165 L 20.4 169 C 20.4 173.699997 23.4 176.599991 28.1 176.599991 L 59.299999 176.599991 C 60.299999 176.599991 61.299999 176.599991 62.099998 176.300003 C 67.900002 174.699997 68.900002 170 68.099998 165 Z"/>
        <path id="path40" fill="#848582" stroke="none" d="M 23.9 109.5 C 22.678963 105.859863 19.238855 103.431564 15.4 103.5 C 12.6 103.5 10.4 104.5 8.6 106.199997 C 6.8 107.899994 6 110.199997 6 112.800003 C 6 115.199997 6.8 117.399994 8.4 119.199997 C 10.1 121.100006 12.4 122 15.3 122 C 18.775223 122.077698 21.977636 120.125 23.5 117 L 42.099998 117 L 42.099998 126.800003 C 42.099998 127.5 41.900002 128.199997 41.700001 128.800003 L 31.4 157.800003 C 31.1 158.599991 30.799999 158.899994 29.9 158.899994 L 20.9 158.899994 C 19.9 158.899994 19.6 159.300003 19.6 160.199997 C 19.6 161.099991 20 161.5 21.1 161.5 L 29.6 161.399994 L 68.300003 161.199997 C 69.5 161.199997 70.099998 160.800003 70 159.899994 C 70 159.099991 69.599998 158.699997 68.400002 158.699997 L 61 158.699997 C 60.299999 158.699997 60 158.5 59.700001 157.899994 C 55.700001 148.199997 51.5 138.599991 47.400002 128.899994 L 47.200001 127.899994 L 47.200001 116.899994 L 76.199997 116.899994 L 76.199997 181.300003 L 83.599998 181.300003 L 83.599998 109.5 L 24 109.5 Z M 18 115.899994 C 17.316528 116.745758 16.287395 117.237259 15.2 117.237259 C 14.112603 117.237259 13.083471 116.745758 12.4 115.899994 C 11.6 114.899994 11.3 113.899994 11.3 112.600006 C 11.260347 111.475754 11.69594 110.386765 12.5 109.600006 C 13.2 108.800003 14.2 108.399994 15.3 108.399994 C 16.4 108.399994 17.299999 108.800003 18 109.699997 C 18.799999 110.699997 19.200001 111.699997 19.200001 112.800003 C 19.200001 113.899994 18.799999 115.100006 18 115.899994 Z M 55.299999 158.699997 L 35.799999 158.699997 L 44.599998 133.899994 L 44.799999 133.899994 L 55.299999 158.699997 Z"/>
    </g>
    <path id="path44" fill="#848582" stroke="none" d="M 105.300003 32.700012 C 103.593002 30.961365 101.235153 30.018219 98.800003 30.100006 C 96.099998 30.100006 93.800003 30.899994 92.099998 32.600006 C 90.303909 34.358337 89.324936 36.787628 89.400002 39.299988 C 89.400002 41.700012 90.300003 43.799988 91.900002 45.700012 C 92.699997 46.700012 93.699997 47.399994 94.900002 47.799988 L 94.900002 181.300003 L 102.400002 181.300003 L 102.400002 47.799988 C 103.400002 47.399994 104.400002 46.799988 105.199997 45.799988 C 107 44.100006 107.800003 41.799988 107.800003 39.200012 C 107.800003 36.600006 107 34.5 105.199997 32.700012 Z M 101.5 42.399994 C 100.699997 43.299988 99.800003 43.700012 98.699997 43.700012 C 97.599998 43.700012 96.699997 43.299988 95.900002 42.399994 C 95.114197 41.481262 94.687889 40.308899 94.699997 39.100006 C 94.660347 37.975739 95.09594 36.88678 95.900002 36.100006 C 96.699997 35.299988 97.599998 34.799988 98.699997 34.799988 C 99.699997 34.799988 100.699997 35.299988 101.5 36.200012 C 102.300003 37.100006 102.699997 38.200012 102.699997 39.299988 C 102.699997 40.399994 102.300003 41.5 101.5 42.299988 Z"/>
    <path id="path46" fill="#848582" stroke="none" d="M 126.5 15.399994 C 126.553825 12.978577 125.629425 10.637695 123.93573 8.906342 C 122.242035 7.175018 119.922005 6.199402 117.5 6.200012 C 114.699997 6.200012 112.5 7.100006 110.699997 8.799988 C 108.900002 10.5 108.099998 12.799988 108.099998 15.5 C 108.099998 17.899994 108.900002 20 110.5 21.799988 C 111.5 22.799988 112.5 23.600006 113.800003 24 L 113.5 24 L 113.5 181.300003 L 121 181.300003 L 121 24 L 120.800003 24 C 124.317657 22.615021 126.59481 19.179291 126.5 15.399994 Z M 120.099998 18.5 C 119.416527 19.345764 118.387398 19.83725 117.300003 19.83725 C 116.212601 19.83725 115.183472 19.345764 114.5 18.5 C 113.800003 17.600006 113.400002 16.5 113.400002 15.299988 C 113.333992 14.190613 113.732498 13.10376 114.5 12.299988 C 115.300003 11.399994 116.300003 11 117.400002 11 C 118.400002 11 119.400002 11.399994 120.099998 12.299988 C 120.900002 13.299988 121.300003 14.299988 121.300003 15.5 C 121.300003 16.700012 120.900002 17.700012 120.099998 18.5 Z"/>
    <path id="path48" fill="#848582" stroke="none" d="M 142.600006 54.200012 C 140.893005 52.461365 138.535156 51.518219 136.100006 51.600006 C 133.591537 51.486908 131.149872 52.426941 129.364853 54.192963 C 127.579826 55.959015 126.613754 58.390472 126.699997 60.899994 C 126.699997 63.200012 127.5 65.299988 129.199997 67.200012 C 130 68.200012 131 68.899994 132.199997 69.299988 L 132.199997 181.300003 L 139.699997 181.300003 L 139.699997 69.299988 C 143.099792 67.819519 145.243561 64.405365 145.100006 60.700012 C 145.146057 58.27124 144.208359 55.927002 142.5 54.200012 Z M 138.800003 63.899994 C 138 64.799988 137 65.200012 136 65.200012 C 135 65.200012 134 64.700012 133.199997 63.899994 C 132.4142 62.981262 131.987885 61.808899 132 60.600006 C 131.960342 59.475739 132.395935 58.38678 133.199997 57.600006 C 134 56.799988 134.899994 56.299988 136 56.299988 C 137.100006 56.299988 138 56.799988 138.800003 57.700012 C 139.5 58.600006 139.899994 59.700012 139.899994 60.799988 C 139.899994 61.899994 139.5 63 138.800003 63.799988 Z"/>
    <g id="g60">
        <path id="rect50" fill="#848582" stroke="none" d="M 151 291.600006 L 158.399994 291.600006 L 158.399994 318.300018 L 151 318.300018 Z"/>
        <path id="rect52" fill="#848582" stroke="none" d="M 76.199997 291.600006 L 83.599998 291.600006 L 83.599998 318.300018 L 76.199997 318.300018 Z"/>
        <path id="rect54" fill="#848582" stroke="none" d="M 94.900002 291.600006 L 102.300003 291.600006 L 102.300003 318.300018 L 94.900002 318.300018 Z"/>
        <path id="rect56" fill="#848582" stroke="none" d="M 113.599998 291.600006 L 121 291.600006 L 121 318.300018 L 113.599998 318.300018 Z"/>
        <path id="rect58" fill="#848582" stroke="none" d="M 132.300003 291.600006 L 139.699997 291.600006 L 139.699997 318.300018 L 132.300003 318.300018 Z"/>
    </g>
    <path id="path62" fill="none" stroke="#848582" stroke-width="2" d="M 363.100006 274.200012 C 365.419586 274.200012 367.299988 272.319611 367.299988 270 C 367.299988 267.68042 365.419586 265.800018 363.100006 265.800018 C 361.054535 266.1185 359.546143 267.879883 359.546143 269.950012 C 359.546143 272.020142 361.054535 273.781525 363.100006 274.100006 Z"/>
    <path id="circle64" fill="none" stroke="#848582" stroke-width="2" d="M 270.141052 266.13385 C 272.276276 267.040222 273.272461 269.505859 272.366119 271.641083 C 271.459778 273.776276 268.994141 274.772461 266.858917 273.866119 C 264.723724 272.959778 263.727539 270.494141 264.633881 268.358948 C 265.540222 266.223724 268.00589 265.227539 270.141052 266.13385 Z"/>
    <g id="g80">
        <g id="g70">
            <path id="path66" fill="#5064ad" stroke="none" d="M 278 278.600006 L 278 261.400024 L 285.600006 261.400024 C 286.399994 261.400024 287.100006 261.5 287.799988 261.900024 C 288.399994 262.200012 289 262.599976 289.5 263.200012 C 290 263.700012 290.399994 264.299988 290.600006 265 C 291.279846 266.667755 291.131561 268.558655 290.200012 270.100006 C 289.700012 271.100006 288.899994 271.700012 288 272.100006 L 291.899994 278.600006 L 288 278.600006 L 284.5 272.800018 L 281.200012 272.800018 L 281.200012 278.600006 L 278 278.600006 Z M 281.299988 269.900024 L 285.5 269.900024 L 286.399994 269.600006 L 287.100006 269.100006 L 287.5 268.100006 C 287.714935 267.416504 287.714935 266.683502 287.5 266 L 287 265 L 286.200012 264.5 C 285.950134 264.378479 285.677673 264.310364 285.399994 264.299988 L 281.399994 264.299988 L 281.399994 269.900024 Z"/>
            <path id="path68" fill="#5064ad" stroke="none" d="M 306 275.600006 L 306 278.600006 L 294 278.600006 L 294 261.400024 L 305.799988 261.400024 L 305.799988 264.299988 L 297.399994 264.299988 L 297.399994 268.400024 L 304.700012 268.400024 L 304.700012 271.100006 L 297.399994 271.100006 L 297.399994 275.600006 L 306 275.600006 Z"/>
        </g>
        <g id="g76">
            <path id="path72" fill="#5064ad" stroke="none" d="M 307.200012 269.800018 C 307.241669 267.652466 308.058563 265.592468 309.5 264 C 312.121704 261.10968 316.38858 260.405457 319.799988 262.299988 C 320.899994 263 321.799988 263.900024 322.399994 265 L 319.799988 266.800018 C 319.600006 266.300018 319.299988 265.800018 319 265.600006 C 318.415344 264.953735 317.648132 264.500366 316.799988 264.299988 L 315.600006 264.299988 C 314.131622 264.211487 312.712646 264.846252 311.799988 266 C 310.603821 267.759338 310.272644 269.967163 310.899994 272 C 311.200012 272.800018 311.600006 273.400024 312 274 C 312.399994 274.5 313 275 313.600006 275.300018 C 315.037476 275.951233 316.692871 275.914459 318.100006 275.200012 L 319.100006 274.300018 C 319.399994 274 319.700012 273.600006 319.899994 273.100006 L 322.600006 274.700012 C 322.299988 275.300018 321.899994 275.900024 321.399994 276.400024 C 320.37616 277.397125 319.095032 278.08963 317.700012 278.400024 L 315.5 278.700012 C 314.299988 278.700012 313.200012 278.400024 312.200012 277.900024 C 310.179657 276.913239 308.607697 275.198364 307.799988 273.100006 C 307.399994 272.100006 307.200012 270.900024 307.200012 269.800018 Z"/>
            <path id="path74" fill="#5064ad" stroke="none" d="M 329.5 261.400024 L 332.5 261.400024 L 339 278.600006 L 335.600006 278.600006 L 334 274.200012 L 328 274.200012 L 326.399994 278.5 L 323 278.5 L 329.5 261.299988 Z M 333.399994 271.900024 L 331 265.200012 L 328.5 271.900024 L 333.399994 271.900024 Z"/>
        </g>
        <path id="path78" fill="#5064ad" stroke="none" d="M 340.899994 278.600006 L 340.899994 261.400024 L 348.200012 261.400024 C 349 261.400024 349.700012 261.5 350.399994 261.900024 C 351.100006 262.200012 351.600006 262.599976 352.100006 263.200012 C 352.600006 263.700012 353 264.299988 353.200012 265 C 353.734589 266.348969 353.734589 267.851044 353.200012 269.200012 C 353.029449 269.876984 352.684692 270.497559 352.200012 271 C 351.700012 271.600006 351.200012 272 350.5 272.300018 C 349.814331 272.632111 349.061859 272.803131 348.299988 272.800018 L 344.299988 272.800018 L 344.299988 278.5 L 340.899994 278.5 Z M 344.200012 269.900024 L 348.200012 269.900024 C 348.794098 269.86969 349.343842 269.576477 349.700012 269.100006 C 350.100006 268.600006 350.299988 267.900024 350.299988 267.100006 C 350.299988 266.600006 350.299988 266.300018 350.100006 265.900024 L 349.600006 265 C 349.186096 264.555908 348.607056 264.302551 348 264.299988 L 344.200012 264.299988 L 344.200012 269.900024 Z"/>
    </g>
    <g id="g100">
        <path id="path82" fill="#e99b24" stroke="none" d="M 433 278.200012 C 432.700012 278.200012 432.399994 278.200012 432.200012 277.900024 C 431.899994 277.600006 431.799988 277.300018 431.799988 276.900024 C 431.799988 276.5 431.799988 276.200012 432.100006 275.900024 C 432.399994 275.600006 432.700012 275.5 433.100006 275.5 C 433.5 275.5 433.700012 275.600006 434 275.900024 C 434.299988 276.200012 434.399994 276.5 434.399994 276.900024 C 434.399994 277.617981 433.817963 278.200012 433.100006 278.200012 Z"/>
        <g id="g98">
            <path id="path84" fill="#e99b24" stroke="none" d="M 385 273.800018 C 385.04068 275.017242 384.479736 276.176544 383.5 276.900024 C 383.049316 277.250336 382.541992 277.520935 382 277.700012 C 381.399994 277.900024 380.700012 278 380 278 L 372.600006 278 L 372.600006 261.799988 L 380.899994 261.799988 C 381.399994 261.799988 381.899994 261.900024 382.299988 262.200012 C 382.799988 262.400024 383.100006 262.799988 383.399994 263.200012 C 383.799988 263.5 384 264 384.200012 264.5 C 384.606781 265.733276 384.460968 267.082184 383.799988 268.200012 C 383.475098 268.884033 382.903534 269.419861 382.200012 269.700012 C 383.009796 269.97348 383.710724 270.499176 384.200012 271.200012 C 384.799988 271.900024 385.100006 272.800018 385.100006 273.800018 Z M 375.600006 264.5 L 375.600006 268.600006 L 379.600006 268.600006 C 380.100006 268.600006 380.600006 268.400024 380.899994 268 C 381.299988 267.700012 381.399994 267.200012 381.399994 266.5 C 381.399994 265.800018 381.299988 265.5 381 265.100006 C 380.600006 264.700012 380.200012 264.5 379.700012 264.5 L 375.600006 264.5 Z M 382 273.300018 C 382.02243 272.725037 381.845825 272.159912 381.5 271.700012 L 380.899994 271.300018 C 380.700012 271.100006 380.5 271.100006 380.200012 271.100006 L 375.600006 271.100006 L 375.600006 275.300018 L 380.100006 275.300018 C 380.632477 275.317047 381.145111 275.097321 381.5 274.700012 L 381.899994 274.100006 L 382 273.200012 Z"/>
            <path id="path86" fill="#e99b24" stroke="none" d="M 394.5 278.200012 C 393.399994 278.200012 392.299988 277.900024 391.399994 277.400024 C 390.46048 277.012909 389.634674 276.393555 389 275.600006 C 386.938873 273.156799 386.364655 269.788055 387.5 266.800018 C 387.899994 265.800018 388.5 265 389.100006 264.200012 C 389.799988 263.400024 390.600006 262.799988 391.5 262.400024 C 393.422943 261.452393 395.677063 261.452393 397.600006 262.400024 C 398.600006 262.900024 399.399994 263.599976 400 264.400024 C 401.31134 265.969482 402.020416 267.954926 402 270 C 402.053741 272.080811 401.342102 274.108978 400 275.700012 C 399.299988 276.400024 398.5 277 397.600006 277.5 C 396.647919 277.891144 395.629272 278.094879 394.600006 278.100006 Z M 390 269.900024 C 390 270.600006 390 271.300018 390.299988 271.900024 C 390.5 272.600006 390.799988 273.200012 391.200012 273.700012 C 391.600006 274.200012 392.100006 274.600006 392.600006 274.900024 C 393.200012 275.200012 393.799988 275.400024 394.600006 275.400024 C 395.399994 275.400024 395.899994 275.200012 396.5 274.900024 C 397.597046 274.203156 398.411865 273.14035 398.799988 271.900024 C 399.213776 270.598785 399.213776 269.201233 398.799988 267.900024 L 397.799988 266.200012 C 397.399994 265.700012 397 265.200012 396.399994 265 C 394.559631 264.023926 392.279846 264.58313 391.100006 266.300018 C 390.337402 267.384796 389.91922 268.674133 389.899994 270 Z"/>
            <path id="path88" fill="#e99b24" stroke="none" d="M 415.700012 264.599976 L 410.700012 264.599976 L 410.700012 278 L 407.700012 278 L 407.700012 264.599976 L 402.799988 264.599976 L 402.799988 261.799988 L 415.799988 261.799988 L 415.799988 264.599976 Z"/>
            <path id="path90" fill="#e99b24" stroke="none" d="M 427.299988 266 C 426.819 265.589447 426.279816 265.252472 425.700012 265 L 424.5 264.599976 C 424.040344 264.500977 423.569061 264.467346 423.100006 264.5 C 422.200012 264.5 421.600006 264.599976 421.200012 265 C 420.799988 265.300018 420.600006 265.700012 420.600006 266.300018 C 420.600006 266.600006 420.700012 266.900024 420.899994 267.100006 C 421 267.400024 421.299988 267.600006 421.600006 267.700012 L 422.600006 268.200012 C 423.100006 268.200012 423.600006 268.400024 424.200012 268.600006 L 426.200012 269.200012 C 426.899994 269.400024 427.399994 269.700012 427.899994 270.200012 C 428.800629 270.933502 429.316345 272.038605 429.299988 273.200012 C 429.318726 273.995544 429.147308 274.784058 428.799988 275.5 C 428.5 276.100006 428.100006 276.600006 427.600006 277 C 427 277.400024 426.399994 277.700012 425.700012 277.900024 C 422.689911 278.578644 419.533203 277.961823 417 276.200012 L 418.299988 273.400024 L 419 274 C 419.871155 274.508606 420.815613 274.879639 421.799988 275.100006 L 423.600006 275.400024 C 425.200012 275.400024 426.100006 274.800018 426 273.600006 C 426 273.300018 426 273 425.700012 272.800018 C 425.600006 272.5 425.299988 272.300018 424.899994 272.100006 L 423.700012 271.700012 L 422 271.200012 L 420 270.5 C 419.521667 270.270874 419.082855 269.967072 418.700012 269.600006 C 418.299988 269.300018 418 268.900024 417.799988 268.5 C 417.362305 267.264557 417.397949 265.910736 417.899994 264.700012 C 418.158051 264.073669 418.570984 263.523132 419.100006 263.099976 C 419.700012 262.599976 420.299988 262.299988 420.899994 262.099976 C 422.598267 261.568176 424.423431 261.603271 426.100006 262.200012 C 427.100006 262.5 427.899994 263 428.600006 263.400024 L 427.299988 266 Z"/>
            <path id="path92" fill="#e99b24" stroke="none" d="M 438.200012 278 L 438.200012 261.799988 L 439.700012 261.799988 L 439.700012 276.600006 L 448.700012 276.600006 L 448.700012 278 L 438.200012 278 Z"/>
            <path id="path94" fill="#e99b24" stroke="none" d="M 456.200012 261.799988 L 457.5 261.799988 L 463.899994 278 L 462.299988 278 L 460.299988 273 L 453.299988 273 L 451.299988 278 L 449.700012 278 L 456.200012 261.799988 Z M 459.899994 271.700012 L 456.799988 263.700012 L 453.600006 271.700012 L 459.899994 271.700012 Z"/>
            <path id="path96" fill="#e99b24" stroke="none" d="M 471 261.900024 L 472.5 261.900024 L 474.700012 267.700012 L 476.899994 261.900024 L 478.399994 261.900024 L 475.700012 268.900024 L 478.700012 276.200012 L 484.299988 261.799988 L 485.899994 261.799988 L 479.299988 278 L 478 278 L 474.700012 270 L 471.399994 278 L 470.100006 278 L 463.5 261.799988 L 465.200012 261.799988 L 470.799988 276.200012 L 473.799988 268.900024 L 471.100006 261.900024 Z"/>
        </g>
    </g>
    <g id="g132">
        <g id="g110">
            <path id="path102" fill="#b53c2c" stroke="none" d="M 75.5 269.800018 C 75.53141 267.668701 76.310013 265.616028 77.699997 264 C 79.234993 262.24353 81.467766 261.255249 83.800003 261.299988 C 86.522964 261.184814 89.077591 262.616943 90.400002 265 L 87.800003 266.800018 C 87.599998 266.300018 87.400002 265.900024 87 265.600006 C 86.432808 265.002747 85.702522 264.585449 84.900002 264.400024 L 83.699997 264.200012 C 82.257233 264.18927 80.905243 264.902832 80.099998 266.100006 C 79.699997 266.600006 79.400002 267.200012 79.099998 267.900024 C 78.702522 269.277222 78.737427 270.743286 79.199997 272.100006 C 79.43364 272.781006 79.770943 273.421875 80.199997 274 C 81.038147 275.135559 82.390587 275.7742 83.800003 275.700012 C 84.603752 275.687805 85.392708 275.481995 86.099998 275.100006 L 87.099998 274.300018 C 87.5 274 87.699997 273.600006 87.900002 273.100006 L 90.599998 274.700012 C 89.991936 275.935028 89.012924 276.949005 87.800003 277.600006 C 86.57045 278.260468 85.195709 278.604156 83.800003 278.600006 C 82.5 278.600006 81.400002 278.400024 80.400002 277.900024 C 78.392212 276.877411 76.853165 275.123627 76.099998 273 C 75.707123 271.978699 75.503799 270.894287 75.5 269.800018 Z"/>
            <path id="path104" fill="#b53c2c" stroke="none" d="M 100 278.700012 C 97.710785 278.677032 95.535408 277.69812 94 276 C 92.521156 274.351166 91.702255 272.214905 91.699997 270 C 91.723534 266.603485 93.657265 263.509521 96.699997 262 C 97.699997 261.5 98.800003 261.299988 100 261.299988 C 101.199997 261.299988 102.300003 261.5 103.300003 262 C 105.314491 262.964661 106.861832 264.691956 107.599998 266.800018 C 108.770561 269.961761 108.075836 273.512573 105.800003 276 C 104.316612 277.69928 102.155052 278.651825 99.900002 278.600006 Z M 95 270 C 95 270.700012 95.199997 271.400024 95.400002 272.100006 C 95.570541 272.777008 95.915298 273.397552 96.400002 273.900024 C 96.800003 274.5 97.300003 274.900024 97.900002 275.200012 C 98.5 275.5 99.199997 275.700012 99.900002 275.700012 C 101.351486 275.732025 102.729248 275.061737 103.599998 273.900024 C 104.044861 273.33197 104.383621 272.688324 104.599998 272 C 105.0299 270.633026 105.0299 269.167023 104.599998 267.800018 C 104.372879 267.146881 104.034569 266.537903 103.599998 266 C 102.721657 264.90155 101.405754 264.243591 100 264.200012 C 99.271942 264.211792 98.555244 264.382385 97.900002 264.700012 C 97.199997 265 96.699997 265.5 96.300003 266 L 95.300003 267.900024 L 95.099998 269.900024 Z"/>
            <path id="path106" fill="#b53c2c" stroke="none" d="M 117.800003 275.700012 C 118.5 275.700012 119.199997 275.600006 119.699997 275.200012 C 120.199997 274.900024 120.699997 274.5 121 274 L 121.699997 272.200012 L 121.900002 270.200012 L 121.900002 261.400024 L 125.099998 261.400024 L 125.099998 270.100006 C 125.108437 271.212585 124.973999 272.321655 124.699997 273.400024 C 124.431168 274.401245 123.991364 275.348511 123.400002 276.200012 C 122.036415 277.87558 119.957802 278.803528 117.800003 278.700012 C 116.5 278.700012 115.300003 278.400024 114.400002 278 C 113.400002 277.5 112.699997 276.900024 112.099998 276 C 111.5 275.300018 111.099998 274.400024 110.800003 273.300018 C 110.53437 272.254089 110.400002 271.179138 110.400002 270.100006 L 110.400002 261.400024 L 113.699997 261.400024 L 113.699997 270.100006 C 113.699997 270.900024 113.699997 271.5 113.900002 272.200012 C 114 272.900024 114.300003 273.5 114.599998 274 C 114.900002 274.5 115.300003 275 115.900002 275.200012 C 116.5 275.400024 117 275.700012 117.800003 275.700012 Z"/>
            <path id="path108" fill="#b53c2c" stroke="none" d="M 128.399994 278.600006 L 128.399994 261.400024 L 135.800003 261.400024 C 136.600006 261.400024 137.300003 261.599976 138 261.900024 C 138.629944 262.243652 139.203308 262.682068 139.699997 263.200012 C 140.658066 264.313538 141.189651 265.731079 141.199997 267.200012 C 141.199997 268.200012 140.899994 269.200012 140.399994 270.200012 C 139.800003 271 139.100006 271.700012 138.100006 272.200012 L 142 278.600006 L 138.300003 278.600006 L 134.899994 272.800018 L 131.699997 272.800018 L 131.699997 278.600006 L 128.399994 278.600006 Z M 131.699997 269.900024 L 135.699997 269.900024 L 136.600006 269.700012 L 137.300003 269.100006 L 137.699997 268.100006 C 137.914948 267.416504 137.914948 266.683502 137.699997 266 C 137.586441 265.673431 137.417282 265.368958 137.199997 265.100006 L 136.399994 264.5 L 135.600006 264.299988 L 131.600006 264.299988 L 131.600006 269.900024 Z"/>
        </g>
        <path id="path112" fill="#b53c2c" stroke="none" d="M 156.300003 264.299988 L 150.899994 264.299988 L 150.899994 278.5 L 147.600006 278.5 L 147.600006 264.299988 L 142.300003 264.299988 L 142.300003 261.299988 L 156.300003 261.299988 L 156.300003 264.299988 Z"/>
        <g id="g130">
            <path id="path114" fill="#b53c2c" stroke="none" d="M 159.399994 278.600006 L 159.399994 261.400024 L 161.100006 261.400024 L 161.100006 277.100006 L 170.800003 277.100006 L 170.800003 278.600006 L 159.399994 278.600006 Z"/>
            <path id="path116" fill="#b53c2c" stroke="none" d="M 172 278.600006 L 172 261.400024 L 173.699997 261.400024 L 173.699997 278.600006 L 172 278.600006 Z"/>
            <path id="path118" fill="#b53c2c" stroke="none" d="M 186.5 264.599976 C 185.97641 264.02478 185.325836 263.579651 184.600006 263.299988 C 183.750748 262.92688 182.826553 262.755737 181.899994 262.799988 C 180.399994 262.799988 179.399994 263 178.699997 263.599976 C 178.019302 264.206482 177.651337 265.08963 177.699997 266 C 177.699997 266.5 177.699997 266.900024 177.899994 267.200012 L 178.800003 268.100006 L 180.199997 268.700012 L 182.300003 269.200012 L 184.699997 269.900024 C 185.5 270.100006 186.100006 270.400024 186.600006 270.800018 C 187.100006 271.200012 187.5 271.600006 187.699997 272.100006 C 188 272.600006 188.100006 273.300018 188.100006 274.100006 C 188.100006 274.900024 188 275.5 187.699997 276.100006 C 187.399994 276.700012 187 277.100006 186.399994 277.5 C 185.899994 277.900024 185.300003 278.200012 184.5 278.5 L 182.100006 278.700012 C 179.5 278.700012 177.199997 277.900024 175.300003 276.200012 L 176.199997 274.800018 C 176.864212 275.537445 177.68396 276.118103 178.600006 276.5 C 179.703979 276.978424 180.896942 277.21701 182.100006 277.200012 C 183.5 277.200012 184.5 276.900024 185.199997 276.400024 C 186 276 186.399994 275.200012 186.399994 274.200012 C 186.399994 273.700012 186.300003 273.200012 186 272.900024 C 185.800003 272.5 185.5 272.200012 185 271.900024 L 183.5 271.200012 L 181.300003 270.700012 C 180.523666 270.499725 179.756287 270.266174 179 270 C 178.300003 269.800018 177.800003 269.5 177.300003 269.200012 C 176.852386 268.867981 176.506104 268.417816 176.300003 267.900024 C 175.803864 266.640106 175.839951 265.232849 176.399994 264 C 176.699997 263.400024 177.100006 263 177.600006 262.5 L 179.5 261.5 C 180.199997 261.400024 181 261.200012 181.899994 261.200012 C 183.885849 261.173279 185.810654 261.886169 187.300003 263.200012 L 186.5 264.599976 Z"/>
            <path id="path120" fill="#b53c2c" stroke="none" d="M 201.800003 262.900024 L 195.800003 262.900024 L 195.800003 278.5 L 194.100006 278.5 L 194.100006 262.900024 L 188.100006 262.900024 L 188.100006 261.400024 L 201.800003 261.400024 L 201.800003 262.900024 Z"/>
            <path id="path122" fill="#b53c2c" stroke="none" d="M 214.399994 277.100006 L 214.399994 278.600006 L 203 278.600006 L 203 261.400024 L 214 261.400024 L 214 262.900024 L 204.699997 262.900024 L 204.699997 269.100006 L 212.899994 269.100006 L 212.899994 270.5 L 204.699997 270.5 L 204.699997 277.100006 L 214.300003 277.100006 Z"/>
            <path id="path124" fill="#b53c2c" stroke="none" d="M 218 264.5 L 218 278.5 L 216.300003 278.5 L 216.300003 261.400024 L 217.600006 261.400024 L 228.699997 275.700012 L 228.699997 261.400024 L 230.399994 261.400024 L 230.399994 278.600006 L 229 278.600006 L 218 264.599976 Z"/>
            <path id="path126" fill="#b53c2c" stroke="none" d="M 244.699997 277.100006 L 244.699997 278.600006 L 233.399994 278.600006 L 233.399994 261.400024 L 244.399994 261.400024 L 244.399994 262.900024 L 235.100006 262.900024 L 235.100006 269.100006 L 243.300003 269.100006 L 243.300003 270.5 L 235 270.5 L 235 277.100006 L 244.600006 277.100006 Z"/>
            <path id="path128" fill="#b53c2c" stroke="none" d="M 246.600006 278.600006 L 246.600006 261.400024 L 253.699997 261.400024 C 254.5 261.400024 255.100006 261.599976 255.699997 261.900024 C 256.299988 262.200012 256.899994 262.599976 257.299988 263.099976 C 258.587677 264.622375 259.003113 266.699463 258.399994 268.600006 C 258.299988 269.200012 258 269.600006 257.700012 270.100006 C 257.055176 271.014923 256.092529 271.656677 255 271.900024 L 259 278.600006 L 257.200012 278.600006 L 253.199997 272.200012 L 248.199997 272.200012 L 248.199997 278.600006 L 246.600006 278.600006 Z M 248.300003 270.700012 L 253.800003 270.700012 C 254.300003 270.700012 254.699997 270.600006 255.100006 270.400024 C 255.5 270.200012 255.899994 269.900024 256.100006 269.5 C 257.386993 267.892548 257.386993 265.607483 256.100006 264 C 255.699997 263.700012 255.399994 263.400024 254.899994 263.200012 C 254.5 263 254.100006 262.900024 253.600006 262.900024 L 248.300003 262.900024 L 248.300003 270.700012 Z"/>
        </g>
    </g>
    <path id="path134" fill="none" stroke="#848582" stroke-width="2" d="M 495.399994 274.200012 C 497.719604 274.200012 499.600006 272.319611 499.600006 270 C 499.600006 267.68042 497.719604 265.800018 495.399994 265.800018 C 493.354523 266.1185 491.84613 267.879883 491.84613 269.950012 C 491.84613 272.020142 493.354523 273.781525 495.399994 274.100006 Z"/>
    <g id="g172">
        <path id="path136" fill="#4a8042" stroke="none" d="M 512 272.400024 C 512 276.600006 510.299988 278.200012 506.899994 278.200012 L 504.899994 278.100006 L 504.899994 275.400024 L 506.399994 275.600006 C 508.100006 275.600006 508.899994 274.600006 508.899994 272.600006 L 508.899994 262.200012 L 511.899994 262.200012 L 511.899994 272.400024 Z"/>
        <path id="path138" fill="#4a8042" stroke="none" d="M 517.700012 262.200012 L 517.700012 271.100006 C 517.700012 274.700012 519.5 275.600006 521.400024 275.600006 C 523.5 275.600006 524.900024 274.600006 524.900024 271.100006 L 524.900024 262.099976 L 527.900024 262.099976 L 527.900024 271.100006 C 527.900024 276.100006 525.5 278.200012 521.299988 278.200012 C 517.099976 278.200012 514.599976 276.200012 514.599976 271.200012 L 514.599976 262.200012 L 517.599976 262.200012 Z"/>
        <path id="path140" fill="#4a8042" stroke="none" d="M 532.599976 273.200012 C 533.099976 274.800018 534.200012 275.800018 536.700012 275.800018 C 539.200012 275.800018 540 274.800018 540 273.800018 C 540 272.5 539.299988 271.800018 536 271.200012 C 531.200012 270.200012 530.200012 268.600006 530.200012 266.5 C 530.200012 263.5 532.900024 261.900024 536.200012 261.900024 C 541.200012 261.900024 542.400024 264.599976 542.5 266.300018 L 539.5 266.300018 C 539.299988 265.5 538.700012 264.299988 536.099976 264.299988 C 534.299988 264.299988 533.299988 264.900024 533.299988 266.100006 C 533.299988 267.100006 533.900024 267.700012 536.799988 268.300018 C 542.200012 269.300018 543.099976 271.100006 543.099976 273.300018 C 543.099976 276 541.099976 278.300018 536.5 278.300018 C 532.099976 278.300018 530 276.100006 529.5 273.300018 L 532.599976 273.300018 Z"/>
        <path id="path142" fill="#4a8042" stroke="none" d="M 548.799988 264.799988 L 543.5 264.799988 L 543.5 262.200012 L 557 262.200012 L 557 264.799988 L 551.799988 264.799988 L 551.799988 277.900024 L 548.799988 277.900024 L 548.799988 264.900024 Z"/>
        <path id="path144" fill="#4a8042" stroke="none" d="M 561.400024 262.200012 L 561.400024 277.900024 L 558.400024 277.900024 L 558.400024 262.200012 L 561.400024 262.200012 Z"/>
        <path id="path146" fill="#4a8042" stroke="none" d="M 578.200012 273 C 577.5 275.800018 575.5 278.200012 571.200012 278.200012 C 566.099976 278.200012 563.5 274.400024 563.5 270.100006 C 563.5 265.800018 566.299988 261.799988 571.299988 261.799988 C 575.700012 261.799988 577.799988 264.400024 578.299988 267.100006 L 575.200012 267.100006 C 574.799988 265.900024 573.799988 264.400024 571.200012 264.400024 C 568.299988 264.400024 566.700012 266.800018 566.700012 269.900024 C 566.700012 273 568.299988 275.600006 571.299988 275.600006 C 573.599976 275.600006 574.5 274.600006 575.200012 273 L 578.200012 273 Z"/>
        <path id="path148" fill="#4a8042" stroke="none" d="M 591.5 271.100006 L 583.299988 271.100006 L 583.299988 275.200012 L 592.400024 275.200012 L 592.099976 277.900024 L 580.200012 277.900024 L 580.200012 262.200012 L 592 262.200012 L 592 264.900024 L 583.299988 264.900024 L 583.299988 268.400024 L 591.5 268.400024 L 591.5 271.100006 Z"/>
        <path id="path150" fill="#4a8042" stroke="none" d="M 601.099976 262 L 601.099976 277.900024 L 599.5 277.900024 L 599.5 262 L 601.099976 262 Z"/>
        <path id="path152" fill="#4a8042" stroke="none" d="M 604.400024 277.900024 L 604.400024 262 L 606.400024 262 C 609.400024 266.5 615 274.200012 615.799988 275.700012 L 615.799988 262.200012 L 617.299988 262.200012 L 617.299988 278 L 615.400024 278 C 613 274.600006 607 265.900024 605.900024 264 L 605.900024 278.100006 L 604.400024 278.100006 Z"/>
        <path id="path154" fill="#4a8042" stroke="none" d="M 622.299988 262 L 622.299988 277.900024 L 620.599976 277.900024 L 620.599976 262 L 622.299988 262 Z"/>
        <path id="path156" fill="#4a8042" stroke="none" d="M 629.5 263.599976 L 623.799988 263.599976 L 623.799988 262.200012 L 636.799988 262.200012 L 636.799988 263.700012 L 631.099976 263.700012 L 631.099976 278 L 629.400024 278 L 629.400024 263.700012 Z"/>
        <path id="path158" fill="#4a8042" stroke="none" d="M 640 262 L 640 277.900024 L 638.299988 277.900024 L 638.299988 262 L 640 262 Z"/>
        <path id="path160" fill="#4a8042" stroke="none" d="M 645.299988 272.800018 L 643.299988 277.900024 L 641.5 277.900024 L 647.900024 262 L 649.900024 262 L 656.5 278 L 654.700012 278 L 652.5 272.800018 L 645.299988 272.800018 Z M 651.900024 271.200012 C 650 266.600006 649.099976 264.5 648.900024 263.400024 L 648.799988 263.400024 L 645.799988 271.200012 L 651.900024 271.200012 Z"/>
        <path id="path162" fill="#4a8042" stroke="none" d="M 659.799988 263.599976 L 654 263.599976 L 654 262.200012 L 667 262.200012 L 667 263.700012 L 661.299988 263.700012 L 661.299988 278 L 659.599976 278 L 659.599976 263.700012 Z"/>
        <path id="path164" fill="#4a8042" stroke="none" d="M 670.299988 262 L 670.299988 277.900024 L 668.599976 277.900024 L 668.599976 262 L 670.299988 262 Z"/>
        <path id="path166" fill="#4a8042" stroke="none" d="M 678.299988 277.900024 L 671.799988 262 L 673.599976 262 L 677.099976 270.800018 L 679.200012 276.200012 L 681.200012 271.300018 L 684.900024 262 L 686.700012 262 L 680.099976 278 L 678.299988 278 Z"/>
        <path id="path168" fill="#4a8042" stroke="none" d="M 698.900024 270.300018 L 689.900024 270.300018 L 689.900024 276.300018 L 699.799988 276.300018 L 699.5 277.900024 L 688.299988 277.900024 L 688.299988 262 L 699.299988 262 L 699.299988 263.599976 L 690 263.599976 L 690 268.800018 L 699 268.800018 L 699 270.300018 Z"/>
        <path id="path170" fill="#4a8042" stroke="none" d="M 702.200012 273.300018 C 702.799988 275.300018 704.099976 276.700012 707.099976 276.700012 C 710.099976 276.700012 711.400024 275.400024 711.400024 273.800018 C 711.400024 272.100006 710.5 271 706.599976 270.300018 C 702.400024 269.600006 701.299988 268.100006 701.299988 266 C 701.299988 263.299988 703.599976 261.700012 706.700012 261.700012 C 711.400024 261.700012 712.5 264.400024 712.700012 265.900024 L 710.900024 265.900024 C 710.599976 264.799988 709.900024 263.200012 706.700012 263.200012 C 704.5 263.200012 703 264 703 265.800018 C 703 267.200012 703.599976 268.100006 707 268.800018 C 712.299988 269.700012 713 271.5 713 273.600006 C 713 276.100006 711.299988 278.200012 707 278.200012 C 703 278.200012 701 276.200012 700.5 273.300018 L 702.200012 273.300018 Z"/>
    </g>
    <text id="Powered-By" xml:space="preserve" x="262.616" y="160" font-family="BM Dohyeon" font-size="64" font-weight="700" fill="#323232">Powered By</text>
</svg>
